<?xml version="1.0" standalone="no"?>
<!DOCTYPE svg PUBLIC "-//W3C//DTD SVG 20010904//EN"
 "http://www.w3.org/TR/2001/REC-SVG-20010904/DTD/svg10.dtd">
<svg version="1.0" xmlns="http://www.w3.org/2000/svg"
 width="358.000000pt" height="358.000000pt" viewBox="0 0 358.000000 358.000000"
 preserveAspectRatio="xMidYMid meet">
<metadata>
Created by potrace 1.14, written by Peter Selinger 2001-2017
</metadata>
<g transform="translate(0.000000,358.000000) scale(0.100000,-0.100000)"
fill="#000000" stroke="none">
<path d="M2653 3522 c-16 -2 -23 -10 -23 -26 0 -36 12 -86 20 -86 7 0 47 75
52 99 3 14 -14 19 -49 13z"/>
<path d="M2477 3403 c-12 -11 -8 -21 13 -26 15 -4 20 0 20 14 0 18 -20 26 -33
12z"/>
<path d="M3234 3095 c-164 -162 -302 -295 -308 -295 -6 0 -31 19 -56 43 -76
72 -166 147 -176 147 -6 0 -26 -17 -45 -37 -18 -21 -30 -35 -25 -31 17 14 58
-17 183 -136 l73 -69 337 336 c186 185 333 337 326 337 -6 0 -145 -133 -309
-295z"/>
<path d="M2842 3363 c-7 -3 -74 -65 -148 -139 -74 -74 -136 -134 -139 -134 -2
0 -48 22 -103 48 -54 27 -110 52 -123 57 -13 4 -26 8 -29 9 -46 19 -197 59
-270 72 -113 20 -396 23 -480 6 -30 -6 -71 -14 -90 -17 -151 -25 -386 -121
-540 -222 -309 -203 -545 -527 -644 -883 -16 -58 -22 -86 -35 -161 -7 -43 -18
-57 -125 -163 -65 -64 -116 -121 -114 -128 2 -6 77 60 166 148 l162 159 25 95
c111 416 362 731 747 938 124 67 338 134 478 150 85 9 296 9 385 0 173 -19
415 -103 572 -200 l33 -20 190 190 c104 104 190 191 190 194 0 6 -92 8 -108 1z"/>
<path d="M3230 2973 c-179 -178 -311 -317 -305 -321 34 -24 156 -230 200 -337
21 -51 66 -183 71 -210 30 -148 37 -209 40 -315 1 -69 3 -126 3 -128 1 -2 21
17 45 42 43 43 45 47 40 93 -14 157 -22 219 -29 243 -2 8 -7 29 -9 45 -8 42
-50 180 -75 242 -45 115 -154 307 -197 351 -8 8 -13 19 -12 24 2 6 127 133
277 282 166 166 272 279 270 288 -3 10 -118 -99 -319 -299z"/>
<path d="M1854 3078 c-3 -5 -8 -31 -10 -56 -2 -26 -6 -63 -9 -82 -15 -116 -16
-138 -6 -144 6 -4 13 4 17 19 3 14 9 25 13 26 51 5 69 13 94 37 23 23 29 38
29 73 1 58 -7 80 -38 102 -33 25 -82 38 -90 25z m56 -33 c57 -30 70 -108 24
-150 -15 -14 -32 -25 -38 -26 -6 0 -19 -2 -29 -4 -15 -3 -17 2 -12 38 12 86
14 103 14 130 1 31 3 32 41 12z"/>
<path d="M1890 2993 c-1 -16 -3 -46 -5 -68 -4 -39 -4 -38 10 10 17 59 19 85 5
85 -5 0 -10 -12 -10 -27z"/>
<path d="M1547 3063 c-28 -4 -29 -5 -22 -55 4 -28 9 -65 11 -82 16 -142 20
-158 42 -152 9 3 34 6 55 8 21 1 43 8 49 16 10 12 3 13 -44 8 -52 -6 -56 -4
-62 16 -9 35 -9 35 39 42 59 9 59 29 0 24 l-45 -3 -10 55 c-6 30 -12 63 -15
73 -4 22 22 34 78 36 9 1 17 6 17 11 0 10 -38 11 -93 3z"/>
<path d="M1655 3045 c0 -13 3 -21 8 -18 4 2 7 10 7 18 0 8 -3 16 -7 18 -5 3
-8 -5 -8 -18z"/>
<path d="M1578 3013 c-2 -5 -1 -26 2 -48 l6 -40 8 30 c4 17 10 38 13 48 4 17
-22 26 -29 10z"/>
<path d="M1350 3000 c0 -5 4 -19 9 -32 5 -13 20 -56 32 -95 12 -40 24 -71 26
-69 7 7 -50 206 -59 206 -4 0 -8 -4 -8 -10z"/>
<path d="M2005 2955 c0 -29 3 -48 7 -42 10 16 10 85 1 90 -5 3 -8 -19 -8 -48z"/>
<path d="M2128 2892 c-89 -108 -112 -147 -70 -121 22 14 157 -29 157 -50 0 -8
5 -16 11 -18 8 -3 11 41 10 152 0 85 -3 155 -6 154 -3 0 -49 -53 -102 -117z
m84 -50 c2 -52 -1 -81 -7 -79 -5 2 -34 12 -63 21 -60 20 -61 11 17 105 25 30
46 50 48 45 1 -5 3 -46 5 -92z"/>
<path d="M2164 2857 c-36 -39 -39 -52 -6 -28 18 12 32 29 32 37 0 18 -1 18
-26 -9z"/>
<path d="M1307 2993 c-6 -9 70 -252 82 -266 11 -11 111 24 111 39 0 10 -10 9
-46 -3 -25 -8 -46 -14 -48 -12 -2 2 -20 56 -41 119 -39 118 -49 138 -58 123z"/>
<path d="M1233 2900 c14 -11 28 -20 32 -20 4 0 -4 9 -18 20 -14 11 -28 20 -32
20 -4 0 4 -9 18 -20z"/>
<path d="M1113 2896 c-17 -6 -35 -14 -38 -18 -4 -4 13 -44 38 -90 25 -46 55
-102 67 -126 15 -28 26 -40 32 -34 6 6 6 17 -1 30 -8 16 -7 21 4 26 21 8 55
66 55 94 0 80 -84 143 -157 118z m95 -41 c34 -28 44 -66 30 -107 -15 -42 -44
-54 -62 -26 -45 73 -75 143 -63 150 24 15 66 8 95 -17z"/>
<path d="M1140 2852 c0 -13 52 -113 57 -109 5 5 -33 97 -45 109 -9 9 -12 9
-12 0z"/>
<path d="M1678 2880 c2 -16 6 -30 8 -30 2 0 4 14 4 30 0 17 -4 30 -8 30 -5 0
-7 -13 -4 -30z"/>
<path d="M2375 2794 c-42 -63 -72 -120 -69 -126 4 -7 13 -3 23 11 15 19 18 20
38 6 16 -11 21 -23 18 -45 -3 -21 0 -30 10 -30 10 0 15 11 15 35 0 31 3 35 25
35 30 0 90 58 97 93 9 48 -39 137 -74 137 -4 0 -42 -52 -83 -116z m108 69 c39
-44 29 -116 -21 -145 -25 -15 -86 -17 -99 -5 -3 4 7 27 23 53 16 25 38 62 48
80 22 39 27 41 49 17z"/>
<path d="M2430 2790 c-18 -28 -31 -52 -29 -54 2 -2 21 18 42 44 20 27 33 51
28 54 -5 3 -24 -17 -41 -44z"/>
<path d="M1276 2855 c3 -11 10 -33 14 -50 7 -27 8 -28 9 -5 0 14 -7 36 -15 50
-10 17 -13 18 -8 5z"/>
<path d="M1701 2824 c0 -11 3 -14 6 -6 3 7 2 16 -1 19 -3 4 -6 -2 -5 -13z"/>
<path d="M2257 2813 c-3 -5 -1 -17 4 -28 7 -17 8 -17 8 8 1 27 -4 34 -12 20z"/>
<path d="M3228 2777 c-53 -64 -53 -68 -11 -51 85 36 94 43 81 64 -21 33 -34
30 -70 -13z"/>
<path d="M2555 2769 c-4 -6 -5 -12 -2 -15 2 -3 7 2 10 11 7 17 1 20 -8 4z"/>
<path d="M1020 2743 c8 -3 33 -22 55 -42 33 -30 35 -31 15 -6 -34 40 -52 54
-70 54 -13 -1 -13 -1 0 -6z"/>
<path d="M2262 2720 c0 -19 2 -27 5 -17 2 9 2 25 0 35 -3 9 -5 1 -5 -18z"/>
<path d="M2566 2651 c-54 -54 -94 -101 -89 -104 6 -4 19 2 29 12 24 22 71 32
77 17 3 -7 1 -36 -4 -65 -4 -30 -6 -58 -3 -63 12 -19 22 6 29 71 l7 68 71 12
c119 20 127 22 121 32 -5 8 -55 5 -119 -7 -11 -2 -45 -7 -75 -10 l-55 -6 68
63 c37 34 67 66 67 70 0 24 -34 -1 -124 -90z"/>
<path d="M872 2710 c-50 -31 -74 -76 -69 -133 7 -77 61 -134 132 -141 143 -12
218 157 113 257 -35 33 -44 37 -91 37 -34 0 -63 -7 -85 -20z m134 -9 c38 -21
74 -91 67 -135 -16 -111 -166 -145 -227 -51 -58 88 14 204 119 191 22 -3 40
-5 41 -5z"/>
<path d="M860 2631 c-21 -40 -12 -81 25 -118 46 -46 56 -37 11 10 -28 30 -33
42 -30 72 1 19 6 40 9 45 3 6 4 10 1 10 -3 0 -10 -9 -16 -19z"/>
<path d="M2665 2678 l-40 -41 35 23 c39 27 60 46 60 54 0 14 -18 3 -55 -36z"/>
<path d="M2520 2699 c0 -5 5 -7 10 -4 6 3 10 8 10 11 0 2 -4 4 -10 4 -5 0 -10
-5 -10 -11z"/>
<path d="M1707 2689 c-32 -3 -60 -9 -63 -12 -3 -2 15 -14 40 -26 55 -27 154
-91 222 -142 27 -21 67 -45 87 -54 35 -14 36 -14 29 4 -9 24 -102 133 -162
188 -51 47 -70 52 -153 42z"/>
<path d="M1900 2682 c0 -4 14 -21 31 -38 41 -39 120 -139 151 -191 16 -28 51
-61 99 -94 41 -28 80 -59 87 -67 10 -14 12 -14 12 -1 0 26 -47 156 -80 222
-59 117 -67 124 -150 146 -101 26 -150 34 -150 23z"/>
<path d="M2486 2675 c-11 -8 -15 -15 -9 -15 6 0 16 7 23 15 16 19 11 19 -14 0z"/>
<path d="M1110 2645 c0 -8 4 -15 10 -15 5 0 7 7 4 15 -4 8 -8 15 -10 15 -2 0
-4 -7 -4 -15z"/>
<path d="M2340 2649 c0 -5 5 -7 10 -4 6 3 10 8 10 11 0 2 -4 4 -10 4 -5 0 -10
-5 -10 -11z"/>
<path d="M2435 2649 c-11 -16 -1 -19 13 -3 7 8 8 14 3 14 -5 0 -13 -5 -16 -11z"/>
<path d="M1410 2609 c-118 -55 -180 -99 -287 -205 -198 -197 -288 -458 -263
-761 6 -63 14 -42 11 27 -2 60 11 81 25 38 11 -37 7 -167 -6 -183 -7 -8 -10
-15 -6 -15 4 0 0 -12 -7 -27 -8 -16 -13 -36 -12 -45 12 -71 200 -246 373 -346
93 -54 225 -104 337 -128 82 -18 120 -22 225 -22 115 0 172 7 285 33 49 11
165 56 230 88 160 79 316 214 360 312 30 67 68 206 63 232 -2 12 -11 5 -30
-24 -23 -35 -52 -69 -143 -167 -30 -32 -177 -148 -216 -170 -141 -81 -310
-147 -409 -161 -24 -4 -49 -9 -54 -13 -6 -3 -80 -7 -166 -8 -160 -2 -235 7
-378 46 -90 25 -214 81 -190 87 9 2 38 -6 65 -18 26 -12 64 -26 83 -31 54 -14
151 -36 190 -42 43 -7 260 -8 315 -1 304 39 593 199 784 435 20 25 39 47 42
50 6 6 65 104 99 165 23 40 24 87 4 204 -14 84 -93 259 -147 325 l-24 29 2
-79 c2 -89 -24 -251 -53 -335 -98 -277 -310 -514 -567 -629 -39 -18 -79 -36
-90 -41 -11 -5 -63 -20 -115 -33 -83 -20 -115 -23 -260 -21 -91 1 -179 5 -195
9 -96 21 -111 34 -57 49 50 14 117 10 186 -12 58 -19 89 -20 117 -5 16 8 29
19 29 24 0 14 -23 63 -38 82 -12 14 -11 19 7 37 27 27 27 61 1 89 -21 22 -74
30 -84 13 -13 -20 -69 16 -109 69 -38 51 -74 87 -136 137 -23 19 -23 20 -7 51
9 17 28 43 43 56 20 19 23 26 12 29 -100 29 -130 39 -126 43 2 2 23 -2 45 -10
23 -9 42 -13 42 -11 0 2 13 -1 30 -6 27 -10 32 -8 56 21 21 24 33 31 57 28 18
-2 32 2 34 9 3 9 -4 11 -25 7 -41 -8 -56 18 -36 65 12 28 18 32 38 27 30 -7
50 15 41 45 -5 14 -3 19 3 15 6 -3 14 -1 18 5 3 6 1 15 -7 19 -10 7 -10 11 0
24 7 8 10 19 7 24 -3 5 1 17 8 27 12 17 14 15 20 -19 4 -20 4 -41 1 -46 -3 -6
-2 -10 4 -10 5 0 13 5 16 10 3 6 15 10 26 10 10 0 19 4 19 9 0 5 18 8 40 7 28
0 45 5 60 21 26 29 26 43 -2 38 -20 -4 -30 -14 -42 -40 -3 -6 -11 -2 -18 7
-23 27 -67 34 -83 12 -13 -18 -14 -18 -8 4 4 18 1 22 -20 22 -14 0 -28 4 -31
8 -2 4 10 6 28 4 31 -4 35 0 66 55 18 32 48 77 67 101 39 48 35 51 -22 17 -22
-13 -56 -32 -75 -42 -19 -10 -39 -24 -43 -30 -4 -7 -13 -13 -20 -13 -13 0 -77
-52 -77 -62 0 -4 14 -9 31 -13 17 -4 28 -9 26 -12 -3 -2 -20 0 -38 4 -30 8
-36 6 -65 -27 -44 -49 -118 -166 -148 -235 -15 -32 -29 -55 -32 -52 -15 15
128 253 178 298 10 9 18 24 18 33 0 9 6 16 13 16 8 0 24 11 37 25 27 28 13 32
-30 10 -17 -9 -30 -23 -30 -32 0 -12 -5 -11 -20 7 -21 24 -21 24 -53 5 -38
-23 -48 -32 -71 -67 -10 -16 -23 -28 -28 -28 -11 0 -39 -32 -80 -94 -16 -23
-28 -36 -28 -31 0 6 18 34 41 64 22 29 38 60 35 68 -6 15 90 120 115 125 7 2
23 13 35 26 29 30 34 28 29 -12 -3 -19 -1 -36 3 -38 4 -2 22 11 41 29 28 26
30 31 12 26 -12 -3 -24 -9 -27 -14 -3 -5 -10 -9 -16 -9 -7 0 -7 4 1 13 7 10 7
17 0 24 -8 8 -7 13 2 18 8 5 10 4 5 -3 -4 -7 -2 -12 4 -12 7 0 14 9 17 19 4
16 62 46 106 55 100 21 292 32 282 17 -3 -6 2 -11 12 -12 16 0 16 -1 -2 -9
-18 -7 -15 -10 22 -27 31 -15 39 -23 33 -34 -8 -12 -11 -12 -22 2 -21 25 -71
55 -95 57 -28 1 -85 -63 -131 -148 -27 -48 -30 -60 -17 -60 9 0 21 4 28 10
113 93 120 96 168 76 l34 -15 -25 -10 c-23 -9 -23 -10 -4 -10 12 -1 27 5 33
13 6 8 25 19 42 26 29 12 29 13 12 34 -10 11 -11 15 -3 9 21 -19 41 -16 33 4
-4 11 -3 14 5 9 8 -5 12 0 12 12 0 14 -13 24 -47 36 -27 9 -34 14 -18 11 17
-3 41 -7 55 -9 59 -7 163 -90 198 -158 21 -42 22 -36 -38 -233 -12 -38 -25
-85 -30 -103 -4 -18 -13 -38 -19 -46 -7 -9 -7 -16 1 -24 9 -9 9 -12 -2 -12 -7
0 -11 -3 -7 -6 8 -9 -16 -55 -42 -78 -21 -19 -21 -19 -58 23 -20 23 -45 47
-55 52 -18 10 -19 9 -3 -18 9 -15 27 -43 40 -62 18 -24 22 -38 15 -46 -16 -19
-18 -373 -2 -369 6 2 20 7 30 11 9 3 23 7 30 9 7 1 45 19 85 39 197 100 352
255 453 453 61 120 63 136 24 213 -133 270 -403 438 -709 444 -162 3 -282 -26
-428 -103 -80 -42 -235 -182 -249 -224 -3 -10 -9 -18 -14 -18 -16 0 -96 -173
-115 -247 -20 -77 -31 -89 -41 -48 -19 77 91 308 204 428 174 183 453 288 690
257 28 -3 52 -4 52 0 0 11 -152 87 -228 114 -93 33 -122 32 -202 -5z m130
-489 c0 -5 -5 -10 -11 -10 -5 0 -7 5 -4 10 3 6 8 10 11 10 2 0 4 -4 4 -10z
m-532 -157 c-1 -28 5 -41 26 -60 15 -12 23 -23 19 -23 -18 1 -72 60 -68 75 3
8 7 22 10 30 8 27 14 16 13 -22z m-66 -165 c-6 -6 -7 0 -4 19 5 21 7 23 10 9
2 -10 0 -22 -6 -28z m115 -310 c-3 -8 -6 -5 -6 6 -1 11 2 17 5 13 3 -3 4 -12
1 -19z m-62 -34 c15 -11 17 -18 9 -32 -25 -39 -57 -17 -46 31 5 21 11 21 37 1z
m125 -169 c0 0 -14 -2 -30 -3 -28 -2 -30 0 -20 18 10 18 11 19 30 3 11 -10 20
-18 20 -18z"/>
<path d="M3492 2597 c-23 -11 -41 -25 -39 -30 1 -5 6 -8 10 -8 4 0 24 -6 46
-14 l39 -13 4 33 c4 35 0 55 -10 54 -4 0 -26 -10 -50 -22z"/>
<path d="M2234 2563 c48 -95 78 -178 102 -284 12 -53 30 -91 70 -152 30 -44
57 -91 60 -104 4 -13 10 -23 14 -23 10 0 31 140 32 220 2 142 0 154 -34 191
-61 66 -221 179 -253 179 -3 0 1 -12 9 -27z"/>
<path d="M2524 2538 l-19 -23 23 19 c21 18 27 26 19 26 -2 0 -12 -10 -23 -22z"/>
<path d="M682 2484 c10 -10 20 -16 22 -13 3 3 -5 11 -17 18 -21 13 -21 12 -5
-5z"/>
<path d="M2622 2460 c0 -19 2 -27 5 -17 2 9 2 25 0 35 -3 9 -5 1 -5 -18z"/>
<path d="M625 2424 c-15 -25 -23 -50 -19 -54 5 -5 50 -33 99 -64 50 -30 95
-60 102 -66 7 -5 18 -10 26 -10 17 0 79 97 67 105 -8 5 -32 -21 -55 -60 -10
-16 -14 -16 -38 -3 l-28 14 25 37 c26 37 17 67 -9 31 -43 -60 -37 -58 -83 -25
-23 17 -46 31 -51 31 -5 0 -14 6 -20 14 -9 11 -7 21 9 48 22 36 25 48 11 48
-5 0 -21 -21 -36 -46z"/>
<path d="M671 2407 c-10 -13 8 -32 59 -62 16 -9 17 -11 -27 47 -17 22 -23 25
-32 15z"/>
<path d="M801 2407 c2 -2 18 -11 34 -21 l30 -17 -24 20 c-13 12 -28 21 -34 21
-6 0 -8 -1 -6 -3z"/>
<path d="M1455 2376 c-22 -6 -51 -19 -65 -28 -20 -15 -22 -20 -11 -30 10 -11
12 -10 9 0 -2 8 18 21 52 34 86 32 95 47 15 24z"/>
<path d="M880 2376 c0 -3 9 -10 20 -16 11 -6 20 -8 20 -6 0 3 -9 10 -20 16
-11 6 -20 8 -20 6z"/>
<path d="M1860 2290 c0 -5 5 -10 11 -10 5 0 7 5 4 10 -3 6 -8 10 -11 10 -2 0
-4 -4 -4 -10z"/>
<path d="M660 2253 c19 -8 44 -22 55 -31 19 -16 19 -16 5 2 -14 18 -70 47 -87
45 -4 0 8 -7 27 -16z"/>
<path d="M558 2253 c7 -3 16 -2 19 1 4 3 -2 6 -13 5 -11 0 -14 -3 -6 -6z"/>
<path d="M585 2232 c-11 -4 -27 -11 -36 -17 -17 -11 -63 -74 -58 -79 5 -4 192
-81 199 -82 3 0 18 -6 33 -12 34 -14 47 -15 47 -3 0 5 -10 13 -21 16 -18 6
-20 13 -16 40 8 51 -25 110 -74 129 -42 17 -44 17 -74 8z m105 -59 c22 -28 27
-93 8 -93 -24 0 -168 64 -168 75 0 16 30 42 60 53 33 12 74 -3 100 -35z"/>
<path d="M566 2162 c13 -12 116 -53 121 -48 6 6 -98 56 -116 56 -9 0 -11 -3
-5 -8z"/>
<path d="M1613 2195 c-8 -22 6 -33 17 -15 13 20 12 30 0 30 -6 0 -13 -7 -17
-15z"/>
<path d="M1136 2173 c-6 -14 -5 -15 5 -6 7 7 10 15 7 18 -3 3 -9 -2 -12 -12z"/>
<path d="M3019 2083 c-12 -16 -12 -17 1 -7 8 7 24 14 35 17 19 4 19 5 -1 6
-12 0 -28 -7 -35 -16z"/>
<path d="M2940 2056 c0 -2 8 -10 18 -17 15 -13 16 -12 3 4 -13 16 -21 21 -21
13z"/>
<path d="M2990 2050 c-9 -6 -10 -10 -3 -10 6 0 15 5 18 10 8 12 4 12 -15 0z"/>
<path d="M1761 2021 c-7 -5 -10 -14 -7 -20 4 -6 3 -11 -3 -11 -5 0 -13 5 -16
10 -8 13 -25 13 -25 -1 0 -6 -7 -17 -15 -25 -8 -8 -11 -22 -8 -30 3 -9 9 -12
12 -7 6 8 29 12 94 16 33 2 37 18 9 32 -12 5 -22 17 -24 27 -2 12 -7 15 -17 9z"/>
<path d="M1540 1971 c0 -5 11 -16 25 -25 21 -14 23 -19 13 -30 -11 -12 -18 -8
-45 20 -25 28 -37 34 -60 30 -32 -6 -73 -48 -73 -75 0 -15 6 -17 45 -11 50 8
55 6 55 -24 1 -29 90 -73 105 -52 8 10 32 13 84 12 62 -1 75 2 87 19 22 30 13
50 -24 53 -17 2 -32 -1 -32 -7 0 -18 -27 -1 -38 25 -15 32 -42 32 -42 -1 0
-34 -16 -32 -28 4 -15 41 -72 91 -72 62z"/>
<path d="M3051 1964 c0 -11 3 -14 6 -6 3 7 2 16 -1 19 -3 4 -6 -2 -5 -13z"/>
<path d="M2960 1942 c10 -20 16 -22 48 -16 50 9 57 18 8 11 -30 -5 -43 -2 -53
11 -13 15 -13 14 -3 -6z"/>
<path d="M278 1915 c-20 -19 -41 -43 -47 -53 -10 -18 -7 -250 4 -302 2 -13 7
-42 10 -65 4 -22 13 -67 22 -100 8 -33 16 -67 18 -76 6 -32 87 -229 96 -234 5
-4 9 -11 9 -18 0 -6 -88 -99 -195 -207 -171 -172 -213 -220 -189 -220 4 0 109
102 234 226 l228 227 -25 56 c-14 31 -29 65 -33 76 -25 55 -63 195 -80 292
-15 83 -19 146 -16 271 1 89 2 162 2 162 -1 0 -18 -16 -38 -35z"/>
<path d="M467 1939 c7 -7 15 -10 18 -7 3 3 -2 9 -12 12 -14 6 -15 5 -6 -5z"/>
<path d="M508 1938 c5 -5 16 -8 23 -6 8 3 3 7 -10 11 -17 4 -21 3 -13 -5z"/>
<path d="M3075 1940 c-3 -6 1 -7 9 -4 18 7 21 14 7 14 -6 0 -13 -4 -16 -10z"/>
<path d="M590 1930 c46 -9 137 -13 129 -6 -2 2 -42 6 -89 9 -62 4 -73 3 -40
-3z"/>
<path d="M450 1901 c0 -6 17 -12 38 -12 20 -1 48 -3 62 -5 14 -2 46 -4 73 -5
50 -1 57 -7 30 -27 -10 -7 -63 -44 -118 -83 -55 -38 -99 -73 -98 -76 2 -4 17
-8 35 -9 18 0 81 -4 141 -8 74 -5 107 -4 107 3 0 6 -10 12 -22 12 -13 1 -32 3
-43 4 -11 2 -49 4 -83 6 -35 2 -65 7 -68 10 -2 3 51 43 116 89 66 46 120 86
120 90 0 3 -10 6 -22 7 -13 0 -78 4 -145 8 -89 5 -123 4 -123 -4z"/>
<path d="M579 1833 c-13 -16 -12 -17 4 -4 9 7 17 15 17 17 0 8 -8 3 -21 -13z"/>
<path d="M2968 1828 c3 -11 8 -15 11 -10 3 5 13 11 21 14 10 3 6 6 -11 10 -22
4 -25 2 -21 -14z"/>
<path d="M3046 1842 c-3 -5 1 -9 9 -9 8 0 12 4 9 9 -3 4 -7 8 -9 8 -2 0 -6 -4
-9 -8z"/>
<path d="M583 1743 c-29 -10 -10 -21 37 -21 28 -1 60 -4 70 -7 12 -4 20 -2 20
4 0 6 -13 11 -30 11 -37 0 -40 0 -65 10 -11 4 -26 5 -32 3z"/>
<path d="M2988 1743 c7 -3 16 -2 19 1 4 3 -2 6 -13 5 -11 0 -14 -3 -6 -6z"/>
<path d="M3090 1729 c0 -5 5 -7 10 -4 6 3 10 8 10 11 0 2 -4 4 -10 4 -5 0 -10
-5 -10 -11z"/>
<path d="M1297 1719 c-10 -6 -22 -21 -27 -34 -28 -75 82 -127 119 -56 17 30
13 50 -14 76 -26 27 -49 31 -78 14z"/>
<path d="M3026 1685 c-11 -8 -15 -15 -9 -15 6 0 16 7 23 15 16 19 11 19 -14 0z"/>
<path d="M3278 1653 c-45 -47 -50 -59 -65 -158 -24 -160 -108 -370 -210 -530
-138 -215 -347 -398 -589 -519 -91 -45 -277 -107 -364 -121 -25 -4 -54 -10
-65 -12 -11 -3 -92 -7 -180 -8 -123 -3 -186 1 -270 15 -194 33 -396 111 -557
214 -31 20 -59 36 -62 36 -3 0 -65 -59 -138 -131 -122 -121 -132 -133 -134
-170 -1 -21 1 -39 5 -39 3 0 60 54 127 121 101 100 125 120 143 114 11 -3 21
-10 21 -15 0 -5 -90 -99 -200 -209 -110 -110 -200 -202 -200 -206 0 -16 52 30
228 204 106 105 196 191 199 191 3 0 47 -21 97 -46 106 -53 184 -84 292 -114
89 -25 87 -25 214 -43 117 -17 438 -12 469 7 4 3 25 7 48 11 98 14 296 85 413
148 62 33 182 107 190 116 3 3 23 20 45 36 106 79 245 229 333 360 91 136 193
371 218 499 2 12 6 32 9 46 11 52 14 73 20 133 3 34 8 74 9 90 2 15 3 27 2 27
-1 0 -22 -21 -48 -47z"/>
<path d="M2975 1651 c-3 -5 -1 -12 5 -16 5 -3 10 1 10 9 0 18 -6 21 -15 7z"/>
<path d="M3078 1633 c7 -3 16 -2 19 1 4 3 -2 6 -13 5 -11 0 -14 -3 -6 -6z"/>
<path d="M585 1610 c-3 -6 1 -7 9 -4 18 7 21 14 7 14 -6 0 -13 -4 -16 -10z"/>
<path d="M520 1600 c-20 -6 -21 -8 -5 -8 11 0 29 3 40 8 25 11 -1 11 -35 0z"/>
<path d="M680 1606 c0 -2 7 -7 16 -10 8 -3 12 -2 9 4 -6 10 -25 14 -25 6z"/>
<path d="M458 1583 c6 -2 18 -2 25 0 6 3 1 5 -13 5 -14 0 -19 -2 -12 -5z"/>
<path d="M596 1582 c-2 -1 -16 -5 -32 -8 -75 -12 -123 -27 -118 -36 6 -9 26
-7 89 8 11 3 46 8 77 11 54 5 58 4 89 -26 27 -28 31 -37 26 -68 -6 -33 -41
-84 -56 -80 -3 1 -45 -7 -93 -17 -60 -13 -88 -24 -88 -33 0 -10 6 -12 19 -8
11 3 28 7 38 9 133 26 143 30 169 57 57 59 44 143 -27 179 -32 17 -82 23 -93
12z"/>
<path d="M872 1570 c0 -14 2 -19 5 -12 2 6 2 18 0 25 -3 6 -5 1 -5 -13z"/>
<path d="M3070 1559 c0 -5 5 -7 10 -4 6 3 10 8 10 11 0 2 -4 4 -10 4 -5 0 -10
-5 -10 -11z"/>
<path d="M2995 1551 c-11 -5 -27 -6 -35 -3 -13 5 -13 4 0 -12 8 -11 16 -14 18
-7 2 6 10 11 17 11 8 0 17 5 20 10 7 11 7 11 -20 1z"/>
<path d="M3038 1553 c7 -3 16 -2 19 1 4 3 -2 6 -13 5 -11 0 -14 -3 -6 -6z"/>
<path d="M3065 1510 c-5 -14 -12 -20 -23 -16 -12 4 -12 2 3 -9 18 -15 20 -14
27 12 9 32 3 44 -7 13z"/>
<path d="M2997 1509 c7 -7 15 -10 18 -7 3 3 -2 9 -12 12 -14 6 -15 5 -6 -5z"/>
<path d="M685 1439 c-4 -6 -5 -12 -2 -15 2 -3 7 2 10 11 7 17 1 20 -8 4z"/>
<path d="M2920 1431 c0 -6 4 -13 10 -16 6 -3 7 1 4 9 -7 18 -14 21 -14 7z"/>
<path d="M649 1415 c-5 -4 -96 -13 -150 -14 -16 -1 -26 -7 -26 -16 0 -8 1 -15
3 -15 41 0 225 49 188 50 -6 0 -13 -2 -15 -5z"/>
<path d="M2990 1410 c-8 -5 -10 -10 -5 -10 6 0 17 5 25 10 8 5 11 10 5 10 -5
0 -17 -5 -25 -10z"/>
<path d="M2950 1400 c0 -5 5 -10 11 -10 5 0 7 5 4 10 -3 6 -8 10 -11 10 -2 0
-4 -4 -4 -10z"/>
<path d="M2885 1320 c-15 -17 -16 -23 -5 -33 10 -9 11 -9 5 1 -4 8 0 21 11 33
9 10 15 19 12 19 -3 0 -13 -9 -23 -20z"/>
<path d="M2961 1325 c9 -11 19 -27 22 -35 5 -13 6 -13 6 1 1 9 -9 24 -21 35
-23 19 -23 19 -7 -1z"/>
<path d="M688 1314 c-37 -20 -36 -29 1 -10 16 9 32 12 36 8 5 -4 5 -1 1 6 -4
6 -8 12 -9 12 -1 -1 -14 -8 -29 -16z"/>
<path d="M700 1280 c0 -6 7 -27 15 -47 8 -19 15 -37 15 -38 0 -1 -21 -10 -47
-20 -27 -10 -52 -22 -58 -26 -20 -19 -44 -8 -55 26 -6 19 -18 35 -26 35 -12 0
-12 -6 2 -37 9 -21 18 -44 21 -50 8 -19 23 -16 99 18 38 17 93 42 122 55 58
26 65 53 7 28 -19 -8 -37 -14 -40 -14 -3 0 -12 18 -21 40 -15 37 -34 54 -34
30z"/>
<path d="M2900 1286 c0 -3 9 -10 20 -16 11 -6 20 -8 20 -6 0 3 -9 10 -20 16
-11 6 -20 8 -20 6z"/>
<path d="M2970 1260 c0 -5 5 -10 11 -10 5 0 7 5 4 10 -3 6 -8 10 -11 10 -2 0
-4 -4 -4 -10z"/>
<path d="M765 1250 c-13 -6 -15 -9 -5 -9 8 0 22 4 30 9 18 12 2 12 -25 0z"/>
<path d="M548 1243 c7 -3 16 -2 19 1 4 3 -2 6 -13 5 -11 0 -14 -3 -6 -6z"/>
<path d="M2835 1219 c-4 -6 -5 -12 -2 -15 2 -3 7 2 10 11 7 17 1 20 -8 4z"/>
<path d="M1030 1214 c0 -22 107 -136 185 -198 33 -25 65 -51 72 -56 7 -6 52
-30 100 -54 175 -87 360 -118 548 -91 83 12 228 53 264 76 17 10 -31 6 -94 -8
-66 -15 -358 -8 -443 11 -161 34 -343 109 -443 181 -27 19 -53 35 -58 35 -5 0
-11 3 -13 8 -5 12 -118 104 -118 96z"/>
<path d="M588 1187 c3 -14 10 -17 26 -12 11 4 31 9 44 12 37 9 25 18 -26 18
-42 0 -48 -2 -44 -18z"/>
<path d="M2850 1196 c0 -2 7 -7 16 -10 8 -3 12 -2 9 4 -6 10 -25 14 -25 6z"/>
<path d="M2920 1185 c-11 -13 -10 -18 6 -30 10 -8 23 -15 29 -15 5 0 -1 7 -13
16 -18 13 -21 19 -11 30 6 8 9 14 6 14 -2 0 -10 -7 -17 -15z"/>
<path d="M2966 1173 c-6 -14 -5 -15 5 -6 7 7 10 15 7 18 -3 3 -9 -2 -12 -12z"/>
<path d="M2815 1140 c3 -5 8 -10 11 -10 2 0 4 5 4 10 0 6 -5 10 -11 10 -5 0
-7 -4 -4 -10z"/>
<path d="M0 1085 c0 -52 1 -55 23 -50 12 2 40 7 61 10 22 3 42 7 44 9 4 4 -68
55 -105 75 -23 11 -23 11 -23 -44z"/>
<path d="M2867 1070 c3 -11 12 -20 21 -20 13 0 12 3 -3 20 -10 11 -19 20 -21
20 -1 0 0 -9 3 -20z"/>
<path d="M2768 1073 c7 -3 16 -2 19 1 4 3 -2 6 -13 5 -11 0 -14 -3 -6 -6z"/>
<path d="M2810 1066 c0 -2 9 -6 20 -9 11 -3 18 -1 14 4 -5 9 -34 13 -34 5z"/>
<path d="M452 1007 c-30 -30 -44 -55 -22 -42 5 3 22 -14 37 -37 55 -87 153
-205 229 -278 112 -107 105 -103 137 -76 15 13 27 27 27 32 0 5 -21 27 -47 49
-99 84 -210 214 -280 327 -20 32 -39 58 -42 57 -3 0 -21 -14 -39 -32z"/>
<path d="M2730 1026 c0 -2 7 -7 16 -10 8 -3 12 -2 9 4 -6 10 -25 14 -25 6z"/>
<path d="M2794 979 c15 -9 16 -13 5 -20 -10 -6 -7 -9 10 -9 23 0 24 1 6 20
-10 11 -23 20 -29 20 -6 0 -3 -5 8 -11z"/>
<path d="M385 940 c-10 -11 -16 -22 -14 -24 2 -2 12 7 22 20 22 29 17 32 -8 4z"/>
<path d="M2660 956 c0 -2 8 -10 17 -17 10 -8 14 -9 10 -2 -5 9 8 13 45 16 l53
3 -62 2 c-35 1 -63 0 -63 -2z"/>
<path d="M2725 900 c10 -11 20 -20 23 -20 3 0 -3 9 -13 20 -10 11 -20 20 -23
20 -3 0 3 -9 13 -20z"/>
<path d="M329 883 l-24 -28 28 24 c15 14 27 26 27 28 0 8 -8 1 -31 -24z"/>
<path d="M2593 895 c-3 -9 -3 -18 -1 -21 3 -3 8 4 11 16 6 23 -1 27 -10 5z"/>
<path d="M2670 845 c-10 -12 -16 -13 -26 -4 -8 6 -14 8 -13 3 0 -5 14 -20 32
-34 24 -18 28 -19 15 -4 -17 19 -17 21 -1 37 10 9 15 17 11 17 -3 0 -11 -7
-18 -15z"/>
<path d="M170 723 l-125 -128 130 125 c71 69 131 126 134 128 2 1 0 2 -5 2 -5
0 -65 -57 -134 -127z"/>
<path d="M2538 833 c7 -3 16 -2 19 1 4 3 -2 6 -13 5 -11 0 -14 -3 -6 -6z"/>
<path d="M2505 821 c-3 -5 -2 -12 3 -15 5 -3 9 1 9 9 0 17 -3 19 -12 6z"/>
<path d="M2581 813 c7 -12 15 -20 18 -17 3 2 -3 12 -13 22 -17 16 -18 16 -5
-5z"/>
<path d="M2705 819 c-4 -6 -5 -12 -2 -15 2 -3 7 2 10 11 7 17 1 20 -8 4z"/>
<path d="M2535 770 c10 -11 20 -20 23 -20 3 0 -3 9 -13 20 -10 11 -20 20 -23
20 -3 0 3 -9 13 -20z"/>
<path d="M2580 745 c-10 -13 -11 -18 -1 -28 7 -7 12 -7 11 -2 -6 27 1 36 23
30 17 -5 19 -4 7 4 -20 14 -25 14 -40 -4z"/>
<path d="M2406 741 c-3 -4 1 -17 10 -27 14 -18 15 -18 5 2 -6 12 -7 24 -4 28
3 3 4 6 0 6 -3 0 -8 -4 -11 -9z"/>
<path d="M1130 715 c-8 -9 -8 -15 -2 -15 12 0 26 19 19 26 -2 2 -10 -2 -17
-11z"/>
<path d="M2356 697 c3 -10 9 -15 12 -12 3 3 0 11 -7 18 -10 9 -11 8 -5 -6z"/>
<path d="M1086 685 c-11 -8 -15 -15 -9 -15 6 0 16 7 23 15 16 19 11 19 -14 0z"/>
<path d="M1128 667 c-3 -19 -2 -25 4 -19 6 6 8 18 6 28 -3 14 -5 12 -10 -9z"/>
<path d="M2475 680 c3 -5 11 -10 16 -10 6 0 7 5 4 10 -3 6 -11 10 -16 10 -6 0
-7 -4 -4 -10z"/>
<path d="M1253 673 c9 -2 17 -8 17 -12 0 -4 7 -8 16 -8 14 0 14 2 -2 14 -10 7
-25 12 -33 12 -13 -1 -12 -2 2 -6z"/>
<path d="M2257 655 c3 -8 9 -12 14 -9 12 7 11 11 -5 17 -10 4 -13 1 -9 -8z"/>
<path d="M1046 651 c-3 -5 1 -11 9 -14 9 -4 12 -1 8 9 -6 16 -10 17 -17 5z"/>
<path d="M2124 618 c-19 -23 -19 -23 1 -7 11 10 29 19 40 22 19 4 19 5 -1 6
-11 0 -29 -9 -40 -21z"/>
<path d="M1085 620 c3 -5 8 -10 11 -10 2 0 4 5 4 10 0 6 -5 10 -11 10 -5 0 -7
-4 -4 -10z"/>
<path d="M1116 613 c-6 -14 -5 -15 5 -6 7 7 10 15 7 18 -3 3 -9 -2 -12 -12z"/>
<path d="M1246 613 c-6 -14 -5 -15 5 -6 7 7 10 15 7 18 -3 3 -9 -2 -12 -12z"/>
<path d="M1373 623 c14 -4 17 -11 13 -31 -5 -26 -5 -26 6 -4 6 12 16 22 22 23
16 1 -26 18 -44 17 -9 0 -8 -2 3 -5z"/>
<path d="M2216 607 c3 -10 9 -15 12 -12 3 3 0 11 -7 18 -10 9 -11 8 -5 -6z"/>
<path d="M2380 606 c0 -2 7 -6 15 -10 8 -3 15 -1 15 4 0 6 -7 10 -15 10 -8 0
-15 -2 -15 -4z"/>
<path d="M1484 588 c-4 -6 -3 -8 4 -4 6 3 21 -4 33 -16 20 -22 21 -22 11 -2
-14 26 -39 37 -48 22z"/>
<path d="M2290 591 c0 -6 4 -13 10 -16 6 -3 7 1 4 9 -7 18 -14 21 -14 7z"/>
<path d="M1941 581 c-8 -5 -9 -11 -3 -15 5 -3 12 1 16 9 6 17 6 18 -13 6z"/>
<path d="M1636 554 c-4 -9 -4 -19 -1 -22 2 -3 7 3 11 12 4 9 4 19 1 22 -2 3
-7 -3 -11 -12z"/>
<path d="M1771 550 c-31 -26 -17 -26 16 0 14 11 22 20 17 20 -5 -1 -20 -10
-33 -20z"/>
<path d="M1828 563 c7 -3 16 -2 19 1 4 3 -2 6 -13 5 -11 0 -14 -3 -6 -6z"/>
<path d="M1471 544 c0 -11 3 -14 6 -6 3 7 2 16 -1 19 -3 4 -6 -2 -5 -13z"/>
<path d="M1941 534 c0 -11 3 -14 6 -6 3 7 2 16 -1 19 -3 4 -6 -2 -5 -13z"/>
<path d="M2036 537 c3 -10 9 -15 12 -12 3 3 0 11 -7 18 -10 9 -11 8 -5 -6z"/>
<path d="M1361 514 c0 -11 3 -14 6 -6 3 7 2 16 -1 19 -3 4 -6 -2 -5 -13z"/>
<path d="M2110 510 c0 -5 5 -10 11 -10 5 0 7 5 4 10 -3 6 -8 10 -11 10 -2 0
-4 -4 -4 -10z"/>
<path d="M1458 487 c-3 -19 -2 -25 4 -19 6 6 8 18 6 28 -3 14 -5 12 -10 -9z"/>
<path d="M1664 483 c7 -29 5 -32 -21 -35 -26 -3 -25 -4 8 -9 l36 -5 -9 36
c-13 45 -22 55 -14 13z"/>
<path d="M2158 493 c6 -2 18 -2 25 0 6 3 1 5 -13 5 -14 0 -19 -2 -12 -5z"/>
<path d="M1496 482 c-2 -4 0 -14 6 -22 8 -12 9 -12 5 2 -3 9 -1 19 6 22 9 3 9
5 0 5 -6 1 -14 -3 -17 -7z"/>
<path d="M1750 473 c0 -5 10 -18 23 -29 l22 -19 -20 25 c-11 14 -21 27 -22 29
-2 2 -3 0 -3 -6z"/>
<path d="M1590 449 c0 -5 5 -7 10 -4 6 3 10 8 10 11 0 2 -4 4 -10 4 -5 0 -10
-5 -10 -11z"/>
<path d="M871 45 c-11 -20 -21 -38 -21 -41 0 -2 14 -4 30 -4 30 0 31 1 24 38
-4 20 -8 38 -9 40 -1 2 -12 -13 -24 -33z"/>
</g>
</svg>
